<svg width="18" height="18" viewBox="0 0 18 18" fill="none" xmlns="http://www.w3.org/2000/svg">
<g clip-path="url(#clip0_1_31266)">
<path d="M15 13.5V8C15 7.05719 15 6.58579 14.7071 6.29289C14.4142 6 13.9426 6 12.9995 6H9.00053C8.05737 6 7.58579 6 7.29289 6.29289C7 6.58579 7 7.05719 7 8V13.5C7 14.4428 7 14.9142 7.29289 15.2071C7.58579 15.5 8.05719 15.5 9 15.5H13C13.9428 15.5 14.4142 15.5 14.7071 15.2071C15 14.9142 15 14.4428 15 13.5Z" stroke="white"/>
<path d="M11 6V4.5C11 3.55719 11 3.08579 10.7071 2.79289C10.4142 2.5 9.94263 2.5 8.99947 2.5C7.59737 2.5 6.40263 2.5 5.00053 2.5C4.05737 2.5 3.58579 2.5 3.29289 2.79289C3 3.08579 3 3.55719 3 4.5V10C3 10.9428 3 11.4142 3.29289 11.7071C3.58579 12 4.05719 12 5 12H7" stroke="white"/>
</g>
<defs>
<clipPath id="clip0_1_31266">
<rect width="18" height="18" fill="white"/>
</clipPath>
</defs>
</svg>
